<svg xmlns="http://www.w3.org/2000/svg" width="1149.11" height="153.851" viewBox="0 0 1149.11 153.851">
  <g>
    <path d="M581.379,45a15.8,15.8,0,0,0,15.8-15.8V15.91a15.8,15.8,0,0,0-31.591,0V29.2A15.8,15.8,0,0,0,581.379,45Z" fill="#61de00"/>
    <path d="M645.693,60.745H517.066a15.8,15.8,0,1,0,0,31.591h34a14.518,14.518,0,0,1,14.517,14.517V137.52a15.843,15.843,0,0,0,15.8,15.8h0a15.843,15.843,0,0,0,15.8-15.8V106.853a14.517,14.517,0,0,1,14.517-14.517h34a15.8,15.8,0,1,0,0-31.591Z" fill="#61de00"/>
    <path d="M895.6,0a76.531,76.531,0,1,0,76.531,76.531A76.531,76.531,0,0,0,895.6,0Zm0,120.2a43.665,43.665,0,1,1,43.665-43.665A43.714,43.714,0,0,1,895.6,120.2Z" fill="#61de00"/>
    <path d="M1072.579,0a76.531,76.531,0,1,0,76.531,76.531A76.531,76.531,0,0,0,1072.579,0Zm0,120.2a43.665,43.665,0,1,1,43.665-43.665A43.714,43.714,0,0,1,1072.579,120.2Z" fill="#61de00"/>
    <path d="M153.079,14.323a17.626,17.626,0,0,0-10.352-13.01,17.217,17.217,0,0,0-21.715,7.652l-27,49.494a6.274,6.274,0,0,1-11.015,0L56,8.965A17.2,17.2,0,0,0,24.034,13.84L.35,132.687c-1.86,9.331,3.86,18.8,13.166,20.783a17.183,17.183,0,0,0,20.453-13.461L45.649,81.4a5.3,5.3,0,0,1,9.855-1.5l17.9,32.821c.077.141.169.269.25.408.182.314.367.626.569.929.128.191.266.372.4.556.195.269.392.536.6.794.165.2.339.392.513.584.2.221.4.44.607.651s.426.4.643.6c.2.176.388.352.592.52.255.209.519.4.785.6.188.137.371.277.566.406.3.2.608.383.919.564.141.082.271.176.416.255.045.025.093.042.139.067.3.161.614.3.925.445.218.1.433.209.653.3.242.1.49.178.736.266.3.106.588.219.887.307.149.045.3.075.454.116.392.105.784.21,1.179.286.073.014.147.02.22.033.472.085.943.159,1.417.2.117.012.236.009.353.018.427.032.853.061,1.279.06.328,0,.656-.027.985-.046.216-.013.433-.012.648-.033.416-.039.83-.108,1.244-.178.13-.023.261-.034.39-.059.363-.07.724-.169,1.086-.264.182-.047.366-.084.547-.138.281-.084.558-.191.836-.29.262-.092.526-.178.783-.284.213-.087.42-.192.63-.289.319-.145.636-.29.946-.455.045-.024.092-.041.136-.065.142-.078.27-.17.409-.251.314-.182.625-.366.928-.569.192-.128.374-.266.56-.4.268-.2.533-.391.789-.6.2-.167.395-.342.589-.517.219-.2.437-.393.646-.6s.409-.431.608-.652c.172-.192.346-.381.511-.582.213-.259.41-.527.606-.8.134-.184.271-.364.4-.554.2-.3.388-.617.57-.931.081-.138.173-.266.251-.407l17.919-32.852a5.289,5.289,0,0,1,9.831,1.5l11.687,58.647a17.2,17.2,0,0,0,33.738-6.724Z" fill="#61de00"/>
    <path d="M811.384,13.947a16.367,16.367,0,0,0-5.4-9.856,16.567,16.567,0,0,0-19-1.753,17.369,17.369,0,0,0-3.843,2.9l-32.1,32.1-5.35,5.35a13.66,13.66,0,0,1-19.318,0l-5.348-5.35-32.1-32.1a17.415,17.415,0,0,0-3.843-2.9,16.567,16.567,0,0,0-19,1.753,16.368,16.368,0,0,0-5.4,9.856c-.072.466-.119.933-.15,1.4-.014.2-.042.4-.049.607a16.4,16.4,0,0,0,.124,2.415,16.347,16.347,0,0,0,4.681,9.708l26.415,26.414,17.614,17.614a37.2,37.2,0,0,1,10.893,26.3v38.685a15.821,15.821,0,0,0,31.642,0V98.407a37.209,37.209,0,0,1,10.893-26.3l17.614-17.614L806.778,28.08a16.336,16.336,0,0,0,4.681-9.708,16.4,16.4,0,0,0,.124-2.415c0-.2-.035-.405-.048-.607C811.5,14.88,811.456,14.413,811.384,13.947Z" fill="#61de00"/>
    <path d="M471.9,0H394.472a31.639,31.639,0,0,0-31.639,31.639v89.784a31.639,31.639,0,0,0,31.639,31.639H471.9a15.822,15.822,0,0,0,0-31.643h-62.98a14.534,14.534,0,0,1,.093-29.067h43.218a15.821,15.821,0,0,0,0-31.642H409.014a14.534,14.534,0,0,1-.093-29.067H471.9a15.868,15.868,0,0,0,15.821-15.821h0A15.868,15.868,0,0,0,471.9,0Z" fill="#61de00"/>
    <path d="M315.227,0H237.8a31.639,31.639,0,0,0-31.639,31.639v89.784A31.639,31.639,0,0,0,237.8,153.062h77.429a15.822,15.822,0,0,0,0-31.643h-62.98a14.534,14.534,0,0,1,.093-29.067h43.217a15.821,15.821,0,1,0,0-31.642H252.34a14.534,14.534,0,0,1-.093-29.067h62.98a15.868,15.868,0,0,0,15.821-15.821h0A15.868,15.868,0,0,0,315.227,0Z" fill="#61de00"/>
  </g>
</svg>
